# xmcd
# Copyright (C) 1995-1998 Ti Kan
#
# Track frame offsets:
#       150
#       9594
#       20785
#       35309
#       46433
#       68254
#       79078
#       89423
#       101449
#       114574
#       125265
#
# Disc length: 1878 seconds
#
# Revision: 0
# Processed by: cddbd v1.5.2PL0 Copyright (c) Steve Scherf et al.
# Submitted via: CD-Import v1.0
#
DISCID=8007540b
DTITLE=The Elektrocution - Trouble Magnet
DYEAR=10
DGENRE=
TTITLE0=Crystal Clear
TTITLE1=Sweet Caroline
TTITLE2=Somewhere Else
TTITLE3=Everything I Touch I Break
TTITLE4=Babylon By Bus
TTITLE5=Goddamn
TTITLE6=Out Of Breath
TTITLE7=Biting The Dust
TTITLE8=Rise To The Sun
TTITLE9=Trouble Magnet
TTITLE10=La Cour Des Miracles
EXTD=
EXTT0=
EXTT1=
EXTT2=
EXTT3=
EXTT4=
EXTT5=
EXTT6=
EXTT7=
EXTT8=
EXTT9=
EXTT10=
PLAYORDER=
